<?xml version="1.0" encoding="utf-8"?>
<!-- Generator: Adobe Illustrator 26.5.0, SVG Export Plug-In . SVG Version: 6.00 Build 0)  -->
<svg version="1.1" xmlns="http://www.w3.org/2000/svg" xmlns:xlink="http://www.w3.org/1999/xlink" x="0px" y="0px"
	 viewBox="0 0 265.34 45" style="enable-background:new 0 0 265.34 45;" xml:space="preserve">
<style type="text/css">
	.st0{fill:#E1E558;}
</style>
<g id="Layer_1">
</g>
<g id="Layer_2">
	<g id="Layer_1_1_">
		<g>
			<g>
				<path class="st0" d="M36.42,2.19v34.55l-16.24,5.96h0h0L3.95,36.73V2.19H36.42 M38.25,0.36h-1.83H3.95H2.12v1.83v34.55v1.28
					l1.2,0.44l16.24,5.96l0.63,0.23l0.63-0.23l16.24-5.96l1.2-0.44v-1.28V2.19V0.36L38.25,0.36z"/>
				<path class="st0" d="M31.27,8.96V7.17H9.11v26.15l1.79,0.66V15.81h5.01v20.01l4.24,1.55l11.11-4.07l0-19.28H10.9V8.96H31.27z
					 M20.14,35.47l-2.45-0.9V15.81h4.98l-0.01,18.73L20.14,35.47z M29.47,32.05l-5,1.84V15.81h5V32.05z"/>
			</g>
			<path class="st0" d="M53.68,10.71v2.9h9.63v3.46h-9.63v5.38h-4.44V7.2H65.2v3.51H53.68z"/>
			<path class="st0" d="M70.54,22.45V7.2h4.44v15.25H70.54z"/>
			<path class="st0" d="M93.4,22.45l-4.03-4.81h-4.49v4.81h-4.42V7.2h10.69c3.9,0,6.93,1.72,6.93,5.2c0,2.55-1.61,4.16-4.01,4.86
				l4.49,5.18H93.4z M90.83,14.41c1.59,0,2.74-0.43,2.74-1.92c0-1.48-1.15-1.92-2.74-1.92h-5.97v3.83H90.83z"/>
			<path class="st0" d="M119.89,17.68c0,3.14-2.9,5.27-8.43,5.27c-3.92,0-7.21-1.07-9.6-2.98l2.33-2.74
				c1.81,1.52,4.31,2.37,7.36,2.37c2.61,0,3.92-0.48,3.92-1.48c0-0.98-1.22-1.31-4.36-1.57c-4.53-0.39-8.65-1.39-8.65-4.79
				c0-3.27,3.53-5.05,8.36-5.05c3.27,0,6.27,0.78,8.36,2.26l-2.24,2.77c-1.7-1.2-3.75-1.68-6.12-1.7c-1.79,0-3.94,0.28-3.94,1.37
				c0,1.02,1.76,1.15,4.49,1.37C116.36,13.19,119.89,14.17,119.89,17.68z"/>
			<path class="st0" d="M140.04,10.75h-6.34v11.7h-4.44v-11.7h-6.29V7.2h17.07V10.75z"/>
			<path class="st0" d="M178.27,7.21l-6.79,15.25h-4.42l-3.55-10.61l-3.57,10.61h-4.38l-6.85-15.25h4.55l4.6,10.48l3.64-10.48h4.09
				l3.64,10.48l4.57-10.48H178.27z"/>
			<path class="st0" d="M191.38,19.53H184l-1.44,2.92h-4.66l7.39-15.25h4.86l7.39,15.25h-4.73L191.38,19.53z M189.83,16.38
				l-2.14-5.4l-2.16,5.4H189.83z"/>
			<path class="st0" d="M214.85,10.76h-6.34v11.7h-4.44v-11.7h-6.29V7.21h17.07V10.76z"/>
			<path class="st0" d="M231.52,17.01l3.81,1.96c-1.42,2.24-4.49,3.98-8.6,3.98c-5.75,0-9.63-2.98-9.63-8.12
				c0-5.14,3.88-8.12,9.8-8.12c3.94,0,6.99,1.79,8.36,3.96l-3.83,1.96c-1-1.57-2.55-2.31-4.6-2.31c-3.14,0-5.23,1.59-5.23,4.51
				c0,2.92,2.09,4.51,5.23,4.51C228.88,19.34,230.45,18.64,231.52,17.01z"/>
			<path class="st0" d="M257.12,7.21v15.25h-4.44v-5.9h-9.15v5.9h-4.44V7.21h4.44v5.69h9.15V7.21H257.12z"/>
			<g>
				<g>
					<path class="st0" d="M36.91,43.43l-0.42-0.49h-0.52v0.49h-0.33v-1.45h1c0.35,0,0.62,0.16,0.62,0.48c0,0.25-0.16,0.4-0.4,0.46
						l0.45,0.52H36.91z M36.63,42.66c0.17,0,0.3-0.04,0.3-0.2c0-0.16-0.13-0.2-0.3-0.2h-0.66v0.41H36.63z"/>
				</g>
				<path class="st0" d="M36.39,40.76c-1.07,0-1.94,0.87-1.94,1.94c0,1.07,0.87,1.94,1.94,1.94c1.07,0,1.94-0.87,1.94-1.94
					C38.33,41.63,37.46,40.76,36.39,40.76z M36.39,44.36c-0.91,0-1.66-0.74-1.66-1.66s0.74-1.66,1.66-1.66
					c0.91,0,1.66,0.74,1.66,1.66S37.3,44.36,36.39,44.36z"/>
			</g>
			<g>
				<g>
					<path class="st0" d="M261.81,9.37l-0.42-0.49h-0.52v0.49h-0.33V7.92h1c0.35,0,0.62,0.16,0.62,0.48c0,0.25-0.16,0.4-0.4,0.46
						l0.45,0.52H261.81z M261.52,8.61c0.17,0,0.3-0.04,0.3-0.2c0-0.16-0.13-0.2-0.3-0.2h-0.66v0.41H261.52z"/>
				</g>
				<path class="st0" d="M261.28,6.71c-1.07,0-1.94,0.87-1.94,1.94c0,1.07,0.87,1.94,1.94,1.94s1.94-0.87,1.94-1.94
					C263.22,7.58,262.35,6.71,261.28,6.71z M261.28,10.3c-0.91,0-1.66-0.74-1.66-1.66c0-0.91,0.74-1.66,1.66-1.66
					c0.91,0,1.66,0.74,1.66,1.66C262.94,9.56,262.2,10.3,261.28,10.3z"/>
			</g>
			<g>
				<path class="st0" d="M49.23,37.88v-6.37h1.09v6.37H49.23z"/>
				<path class="st0" d="M60.61,31.51v6.37h-0.97l-4.98-5.03v5.03h-1.06v-6.37h1.17l4.77,4.83v-4.83H60.61z"/>
				<path class="st0" d="M71.01,34.69c0,1.97-1.51,3.19-3.88,3.19H63.9v-6.37h3.23C69.5,31.51,71.01,32.73,71.01,34.69z
					 M69.89,34.69c0-1.48-1.17-2.23-2.84-2.23h-2.06v4.46h2.06C68.73,36.93,69.89,36.17,69.89,34.69z"/>
				<path class="st0" d="M80.67,31.51v3.37c0,1.88-1.21,3.2-3.47,3.2c-2.25,0-3.46-1.31-3.46-3.2v-3.37h1.09v3.3
					c0,1.43,0.85,2.29,2.37,2.29c1.53,0,2.38-0.86,2.38-2.29v-3.3H80.67z"/>
				<path class="st0" d="M90.39,36c0,1.21-1.19,2.08-3.36,2.08c-1.49,0-2.81-0.44-3.81-1.29l0.68-0.77
					c0.86,0.77,1.88,1.12,3.17,1.12c1.42,0,2.2-0.37,2.2-1.04c0-0.66-0.8-0.83-2.4-0.97c-1.76-0.15-3.41-0.54-3.41-1.84
					c0-1.27,1.47-1.97,3.3-1.97c1.38,0,2.56,0.41,3.32,1.06l-0.69,0.75c-0.66-0.57-1.56-0.85-2.61-0.86
					c-1.01-0.01-2.21,0.24-2.21,0.95c0,0.67,1.07,0.79,2.46,0.9C89.01,34.27,90.39,34.67,90.39,36z"/>
				<path class="st0" d="M99.04,32.46h-2.9v5.42h-1.09v-5.42h-2.89v-0.96h6.88V32.46z"/>
				<path class="st0" d="M107.3,37.88l-1.98-2.31h-2.69v2.31h-1.09v-6.37h4.33c1.48,0,2.58,0.71,2.58,2.03
					c0,1.1-0.76,1.78-1.88,1.98l2.07,2.37H107.3z M105.81,34.63c0.91,0,1.53-0.29,1.53-1.08c0-0.79-0.62-1.08-1.53-1.08h-3.18v2.17
					H105.81z"/>
				<path class="st0" d="M111.36,37.88v-6.37h1.09v6.37H111.36z"/>
				<path class="st0" d="M120.94,36.34h-4.09l-0.81,1.54h-1.18l3.45-6.37h1.2l3.44,6.37h-1.19L120.94,36.34z M120.46,35.41
					l-1.56-2.95l-1.56,2.95H120.46z"/>
				<path class="st0" d="M131.16,36.92v0.97h-5.79v-6.37h1.09v5.41H131.16z"/>
				<path class="st0" d="M143.88,35.98l1.01,0.5c-0.6,0.93-1.77,1.59-3.38,1.59c-2.39,0-3.89-1.28-3.89-3.38
					c0-2.09,1.5-3.38,3.93-3.38c1.57,0,2.73,0.67,3.32,1.58l-1.02,0.51c-0.47-0.78-1.28-1.13-2.32-1.13c-1.68,0-2.8,0.82-2.8,2.41
					c0,1.59,1.12,2.41,2.8,2.41C142.57,37.11,143.39,36.77,143.88,35.98z"/>
				<path class="st0" d="M147.76,31.51l2.43,3.23l2.41-3.23h1.26l-3.13,4.17v2.2h-1.09v-2.2l-3.14-4.17H147.76z"/>
				<path class="st0" d="M163.3,36.13c0,1.15-0.94,1.75-2.44,1.75h-4.57v-6.37h4.31c1.4,0,2.34,0.57,2.34,1.62
					c0,0.73-0.45,1.38-1.38,1.45C162.55,34.64,163.3,35.1,163.3,36.13z M157.37,34.19h3.06c0.86,0,1.43-0.19,1.43-0.89
					c0-0.7-0.57-0.88-1.43-0.88h-3.06V34.19z M162.18,36.02c0-0.72-0.57-0.95-1.53-0.95h-3.29v1.89h3.29
					C161.61,36.97,162.18,36.74,162.18,36.02z"/>
				<path class="st0" d="M172.47,36.93v0.96h-6.35v-6.37h6.26v0.96h-5.17v1.7h4.35v0.96h-4.35v1.8H172.47z"/>
				<path class="st0" d="M181.02,37.88l-1.98-2.31h-2.69v2.31h-1.09v-6.37h4.33c1.48,0,2.58,0.71,2.58,2.03
					c0,1.1-0.76,1.78-1.88,1.98l2.07,2.37H181.02z M179.53,34.63c0.91,0,1.53-0.29,1.53-1.08c0-0.79-0.62-1.08-1.53-1.08h-3.18v2.17
					H179.53z"/>
				<path class="st0" d="M196.65,36c0,1.21-1.19,2.08-3.36,2.08c-1.49,0-2.81-0.44-3.81-1.29l0.68-0.77
					c0.86,0.77,1.88,1.12,3.17,1.12c1.42,0,2.2-0.37,2.2-1.04c0-0.66-0.8-0.83-2.4-0.97c-1.76-0.15-3.41-0.54-3.41-1.84
					c0-1.27,1.47-1.97,3.3-1.97c1.38,0,2.56,0.41,3.32,1.06l-0.69,0.75c-0.66-0.57-1.56-0.85-2.61-0.86
					c-1.01-0.01-2.21,0.24-2.21,0.95c0,0.67,1.07,0.79,2.46,0.9C195.26,34.27,196.65,34.67,196.65,36z"/>
				<path class="st0" d="M205.7,36.93v0.96h-6.35v-6.37h6.26v0.96h-5.17v1.7h4.35v0.96h-4.35v1.8H205.7z"/>
				<path class="st0" d="M214.13,35.98l1.01,0.5c-0.6,0.93-1.77,1.59-3.38,1.59c-2.39,0-3.89-1.28-3.89-3.38
					c0-2.09,1.5-3.38,3.93-3.38c1.57,0,2.73,0.67,3.32,1.58l-1.02,0.51c-0.47-0.78-1.28-1.13-2.32-1.13c-1.68,0-2.8,0.82-2.8,2.41
					c0,1.59,1.12,2.41,2.8,2.41C212.82,37.11,213.64,36.77,214.13,35.98z"/>
				<path class="st0" d="M224.6,31.51v3.37c0,1.88-1.21,3.2-3.47,3.2c-2.25,0-3.46-1.31-3.46-3.2v-3.37h1.09v3.3
					c0,1.43,0.85,2.29,2.37,2.29c1.53,0,2.38-0.86,2.38-2.29v-3.3H224.6z"/>
				<path class="st0" d="M233.52,37.88l-1.98-2.31h-2.69v2.31h-1.09v-6.37h4.33c1.48,0,2.58,0.71,2.58,2.03
					c0,1.1-0.76,1.78-1.88,1.98l2.07,2.37H233.52z M232.03,34.63c0.91,0,1.53-0.29,1.53-1.08c0-0.79-0.62-1.08-1.53-1.08h-3.18v2.17
					H232.03z"/>
				<path class="st0" d="M237.58,37.88v-6.37h1.09v6.37H237.58z"/>
				<path class="st0" d="M248.06,32.46h-2.9v5.42h-1.09v-5.42h-2.89v-0.96h6.88V32.46z"/>
				<path class="st0" d="M250.97,31.51l2.43,3.23l2.41-3.23h1.26l-3.13,4.17v2.2h-1.09v-2.2l-3.14-4.17H250.97z"/>
			</g>
		</g>
	</g>
</g>
</svg>
